#!OML:ASF X:\für Bonn\!DataBase\2005_08_10_Bjorn_Final\c3d\bjorn.ASF
:FULLY-SPECIFIED
:DEGREES
579
root -1.16449 1.58353 21.7796 -442.807 -168.64 10.3819
lowerback -7.6355 0.252931 -10.8406
upperback 0.974707 1.16039 -7.12156
thorax 5.25319 0.125993 -1.32028
lowerneck -17.1725 -8.91353 -4.70919
upperneck 7.20501 -12.8955 10.7354
head 5.99025 -5.96263 2.73973
rclavicle 5.725e-014 4.91992e-014
rhumerus -226.498 -193.819 124.346
rradius 119.519
rwrist -13.6975
rhand -19.2608 11.3049
rfingers 7.12502
rthumb 7.05343 -18.5576
lclavicle 5.725e-014 4.91992e-014
lhumerus -381.646 -48.6885 -309.4
lradius 94.0835
lwrist -17.7357
lhand -57.1769 -29.8218
lfingers 7.12502
lthumb -29.4604 -2.13816
rfemur -193.566 -158.045 182.806
rtibia 24.2146
rfoot 12.525 -6.55172
rtoes 11.6904
lfemur -53.048 -6.75792 -29.0574
ltibia 92.7716
lfoot 27.9129 12.121
ltoes -3.14784
580
root -1.168 1.5811 21.7763 -442.821 -168.619 10.4655
lowerback -7.5955 0.213321 -10.9022
upperback 0.961136 1.1088 -7.08485
thorax 5.21726 0.102311 -1.25303
lowerneck -17.1165 -8.9064 -4.71824
upperneck 7.19203 -12.8822 10.7327
head 5.97638 -5.95833 2.74436
rclavicle 6.20208e-014 1.27222e-014
rhumerus -226.263 -194.072 124.145
rradius 119.044
rwrist -13.4509
rhand -19.1697 11.2357
rfingers 7.12502
rthumb 7.14131 -18.6238
lclavicle 6.20208e-014 1.27222e-014
lhumerus -382.285 -48.8937 -308.718
lradius 93.8072
lwrist -18.1246
lhand -57.1841 -30.0766
lfingers 7.12502
lthumb -29.4673 -2.3942
rfemur -193.618 -157.972 182.783
rtibia 24.2992
rfoot 12.6079 -6.3978
rtoes 11.245
lfemur -52.9503 -7.01737 -29.2006
ltibia 92.3203
lfoot 27.6907 11.9898
ltoes -2.67429
581
root -1.17171 1.57867 21.7738 -442.839 -168.638 10.5568
lowerback -7.56146 0.162403 -10.93
upperback 0.957589 1.04405 -7.03169
thorax 5.19682 0.0736342 -1.18832
lowerneck -17.0534 -8.88351 -4.72858
upperneck 7.14718 -12.8454 10.7382
head 5.95021 -5.94312 2.75559
rclavicle 0 5.56597e-015
rhumerus -225.996 -194.361 123.973
rradius 118.576
rwrist -13.2065
rhand -19.018 11.2887
rfingers 7.12502
rthumb 7.28778 -18.5657
lclavicle 0 5.56597e-015
lhumerus -382.908 -49.045 -308.046
lradius 93.526
lwrist -18.4983
lhand -57.0943 -30.062
lfingers 7.12502
lthumb -29.3815 -2.36453
rfemur -193.679 -157.836 182.809
rtibia 24.405
rfoot 12.7499 -6.14305
rtoes 10.4942
lfemur -52.8319 -7.26439 -29.2922
ltibia 91.8163
lfoot 27.5488 11.6821
ltoes -2.71219
582
root -1.1754 1.57671 21.7704 -442.844 -168.636 10.6306
lowerback -7.5582 0.123252 -10.9754
upperback 0.9644 1.00044 -6.99689
thorax 5.20391 0.0523879 -1.13174
lowerneck -17.0244 -8.86058 -4.69686
upperneck 7.12135 -12.8152 10.7163
head 5.93137 -5.93034 2.74949
rclavicle 0 2.01766e-014
rhumerus -225.792 -194.61 123.779
rradius 118.126
rwrist -12.943
rhand -18.8447 11.4212
rfingers 7.12502
rthumb 7.45508 -18.4274
lclavicle 0 2.01766e-014
lhumerus -383.405 -49.2025 -307.471
lradius 93.2404
lwrist -18.8146
lhand -56.8664 -29.9215
lfingers 7.12502
lthumb -29.1639 -2.18603
rfemur -193.749 -157.764 182.809
rtibia 24.5232
rfoot 12.8038 -5.99882
rtoes 10.347
lfemur -52.7135 -7.47182 -29.409
ltibia 91.2686
lfoot 27.4937 11.232
ltoes -3.32513
583
root -1.1782 1.57461 21.7654 -442.858 -168.637 10.7063
lowerback -7.5183 0.0700247 -11.0342
upperback 0.947492 0.931641 -6.94793
thorax 5.16602 0.0213004 -1.05475
lowerneck -16.9339 -8.82423 -4.70718
upperneck 7.0684 -12.7581 10.7163
head 5.89624 -5.90632 2.76278
rclavicle 4.45278e-014 1.98785e-016
rhumerus -225.629 -194.945 123.588
rradius 117.687
rwrist -12.7
rhand -18.6823 11.6336
rfingers 7.12502
rthumb 7.61181 -18.2094
lclavicle 4.45278e-014 1.98785e-016
lhumerus -383.943 -49.3741 -306.846
lradius 92.8917
lwrist -19.0483
lhand -56.6399 -29.6324
lfingers 7.12502
lthumb -28.9476 -1.85967
rfemur -193.816 -157.624 182.808
rtibia 24.6602
rfoot 12.8991 -5.78272
rtoes 10.0687
lfemur -52.5656 -7.66793 -29.5136
ltibia 90.6725
lfoot 27.4317 10.8186
ltoes -4.08917
584
root -1.1816 1.57325 21.7604 -442.87 -168.655 10.7849
lowerback -7.5083 0.0194802 -11.0878
upperback 0.952485 0.874351 -6.88701
thorax 5.16813 -0.00566289 -0.967337
lowerneck -16.9105 -8.7917 -4.67533
upperneck 7.04424 -12.7063 10.6604
head 5.87456 -5.88366 2.74877
rclavicle 2.8625e-014 -4.95968e-014
rhumerus -225.499 -195.272 123.41
rradius 117.283
rwrist -12.471
rhand -18.539 11.8912
rfingers 7.12502
rthumb 7.75011 -17.9468
lclavicle 2.8625e-014 -4.95968e-014
lhumerus -384.31 -49.5567 -306.283
lradius 92.4345
lwrist -19.1594
lhand -56.3122 -29.4096
lfingers 7.12502
lthumb -28.6345 -1.58355
rfemur -193.884 -157.565 182.823
rtibia 24.8176
rfoot 12.8653 -5.67531
rtoes 9.97746
lfemur -52.4028 -7.85602 -29.5936
ltibia 90.0304
lfoot 27.3902 10.4824
ltoes -4.90754
585
root -1.18501 1.57151 21.755 -442.869 -168.657 10.8312
lowerback -7.51418 -0.0271687 -11.1445
upperback 0.95612 0.823784 -6.83698
thorax 5.17771 -0.0302436 -0.889241
lowerneck -16.872 -8.74251 -4.67835
upperneck 7.02049 -12.6314 10.6489
head 5.85446 -5.84814 2.75708
rclavicle 2.70347e-014 -9.54166e-015
rhumerus -225.443 -195.606 123.215
rradius 116.916
rwrist -12.2034
rhand -18.4117 12.1351
rfingers 7.12502
rthumb 7.87299 -17.6983
lclavicle 2.70347e-014 -9.54166e-015
lhumerus -384.64 -49.7232 -305.735
lradius 91.9832
lwrist -19.1677
lhand -55.9025 -29.0766
lfingers 7.12502
lthumb -28.2431 -1.18517
rfemur -193.978 -157.451 182.818
rtibia 24.9933
rfoot 12.8866 -5.486
rtoes 10.0449
lfemur -52.239 -8.01165 -29.6875
ltibia 89.3416
lfoot 27.3079 10.1963
ltoes -5.71129
586
root -1.18826 1.56997 21.7493 -442.882 -168.655 10.9097
lowerback -7.49794 -0.0825498 -11.2274
upperback 0.958079 0.760936 -6.7737
thorax 5.17354 -0.0606101 -0.784044
lowerneck -16.8464 -8.70153 -4.6621
upperneck 7.01291 -12.5611 10.5773
head 5.8361 -5.81626 2.74274
rclavicle 6.36111e-015 5.02925e-014
rhumerus -225.419 -195.973 123.027
rradius 116.586
rwrist -11.9149
rhand -18.3231 12.3124
rfingers 7.12502
rthumb 7.95847 -17.5178
lclavicle 6.36111e-015 5.02925e-014
lhumerus -384.998 -49.8982 -305.194
lradius 91.5708
lwrist -19.0828
lhand -55.3871 -28.8394
lfingers 7.12502
lthumb -27.7504 -0.867546
rfemur -194.06 -157.354 182.804
rtibia 25.189
rfoot 12.8433 -5.36014
rtoes 10.3814
lfemur -52.0466 -8.17583 -29.7681
ltibia 88.5973
lfoot 27.1925 9.94414
ltoes -6.36446
587
root -1.19125 1.56878 21.7427 -442.894 -168.673 10.9662
lowerback -7.48717 -0.120891 -11.275
upperback 0.960615 0.717581 -6.71902
thorax 5.17237 -0.0809761 -0.70495
lowerneck -16.8016 -8.65557 -4.61402
upperneck 6.97019 -12.4871 10.491
head 5.8003 -5.78484 2.72077
rclavicle -7.95139e-014 6.30147e-014
rhumerus -225.446 -196.316 122.833
rradius 116.296
rwrist -11.6761
rhand -18.2344 12.4882
rfingers 7.12502
rthumb 8.04407 -17.3387
lclavicle -7.95139e-014 6.30147e-014
lhumerus -385.35 -50.0521 -304.674
lradius 91.2169
lwrist -18.8911
lhand -54.7575 -28.5142
lfingers 7.12502
lthumb -27.1482 -0.446851
rfemur -194.142 -157.313 182.806
rtibia 25.3998
rfoot 12.7486 -5.29384
rtoes 10.7532
lfemur -51.8493 -8.29805 -29.8295
ltibia 87.8208
lfoot 27.0567 9.58816
ltoes -7.07612
588
root -1.19428 1.56749 21.7339 -442.886 -168.676 11.0185
lowerback -7.49645 -0.16154 -11.3433
upperback 0.954076 0.674468 -6.66789
thorax 5.17289 -0.10201 -0.618409
lowerneck -16.7979 -8.60748 -4.57237
upperneck 6.99158 -12.4102 10.3937
head 5.79089 -5.74879 2.69405
rclavicle -3.49861e-014 4.44284e-014
rhumerus -225.52 -196.674 122.603
rradius 115.999
rwrist -11.3674
rhand -18.2182 12.5627
rfingers 7.12502
rthumb 8.05971 -17.2636
lclavicle -3.49861e-014 4.44284e-014
lhumerus -385.676 -50.1946 -304.18
lradius 90.8418
lwrist -18.6659
lhand -54.1408 -28.3629
lfingers 7.12502
lthumb -26.5581 -0.204813
rfemur -194.268 -157.247 182.797
rtibia 25.6448
rfoot 12.6088 -5.22605
rtoes 11.1728
lfemur -51.6573 -8.42184 -29.8915
ltibia 87.0006
lfoot 26.8715 9.33802
ltoes -7.44736
